Coordinates
version=1
nRows=26
nColumns=24
inDegrees=yes

Units are S.I. units (second, meters, Newtons, ...)
Angles are in degrees.

endheader
time	pelvis_tilt	pelvis_list	pelvis_rotation	pelvis_tx	pelvis_ty	pelvis_tz	hip_flexion_r	hip_adduction_r	hip_rotation_r	knee_angle_r	ankle_angle_r	subtalar_angle_r	mtp_angle_r	hip_flexion_l	hip_adduction_l	hip_rotation_l	knee_angle_l	ankle_angle_l	subtalar_angle_l	mtp_angle_l	lumbar_extension	lumbar_bending	lumbar_rotation
      4.45000000	      9.64986694	      6.48635724	      3.23907779	     -0.46477128	      0.90101455	      0.19582990	     -6.99095481	     -7.78981911	     -7.61618832	    -60.71563852	      7.42496163	     10.19502230	      0.00000000	      8.06804288	     11.38567827	     -1.17394275	    -22.63422481	     18.25905439	     -3.41316342	      0.00000000	    -25.50346052	     -5.46635040	     -0.61745446
      4.46000000	      9.38079889	      6.28488065	      2.78134272	     -0.45037732	      0.90374534	      0.19547121	     -4.35254945	     -7.94240751	     -7.00343162	    -62.52908196	      8.81795504	      9.66008539	      0.00000000	      6.78132747	     11.21221380	     -1.15776218	    -21.61723968	     18.62390836	     -3.59169644	      0.00000000	    -25.02097601	     -5.26692317	     -0.65768319
      4.47000000	      9.06746852	      6.00556219	      2.44666757	     -0.43615440	      0.90642021	      0.19498308	     -1.75944898	     -7.95117491	     -6.56919299	    -63.92009083	     10.04716310	      9.02827462	      0.00000000	      5.50005711	     11.00900922	     -0.88815036	    -20.51403349	     18.80809515	     -4.01309857	      0.00000000	    -24.52329933	     -4.92922596	     -0.83148192
      4.48000000	      8.71744855	      5.68077084	      2.25645477	     -0.42209256	      0.90896292	      0.19431399	      0.75629487	     -7.86724880	     -6.33675850	    -64.90690647	     11.15281945	      8.37012337	      0.00000000	      4.20136302	     10.82088950	     -0.24204622	    -19.30520658	     18.77786993	     -4.78682205	      0.00000000	    -24.02303199	     -4.48122349	     -1.13720425
      4.49000000	      8.35636988	      5.31683043	      2.17038819	     -0.40817290	      0.91133690	      0.19354749	      3.16244297	     -7.69722232	     -6.24786186	    -65.50361698	     12.19801951	      7.71320473	      0.00000000	      2.87927252	     10.61277197	      0.60243332	    -18.01469667	     18.54763865	     -5.83690706	      0.00000000	    -23.55379932	     -3.94883717	     -1.55747434
      4.50000000	      7.91225635	      4.92682611	      2.20005704	     -0.39439255	      0.91337678	      0.19271343	      5.54110155	     -7.46405983	     -6.29579414	    -65.74724341	     13.14364532	      7.00031479	      0.00000000	      1.65809579	     10.36784074	      1.49810968	    -16.72307405	     18.27929595	     -6.88486195	      0.00000000	    -23.02767841	     -3.36103487	     -2.11267787
      4.51000000	      7.56409127	      4.52979722	      2.28597003	     -0.38072822	      0.91527725	      0.19183745	      7.68793325	     -7.19766901	     -6.43029896	    -65.63288592	     14.09918481	      6.49898066	      0.00000000	      0.30258601	     10.12144876	      2.57995009	    -15.35430903	     17.87689551	     -8.29930490	      0.00000000	    -22.65641200	     -2.73517443	     -2.74656498
      4.52000000	      7.21821228	      4.14455315	      2.45221068	     -0.36715894	      0.91690227	      0.19097364	      9.70662929	     -6.92725688	     -6.66284145	    -65.18380936	     15.01439864	      6.08631420	      0.00000000	     -1.02386249	      9.84545746	      3.55724342	    -14.01395724	     17.44273093	     -9.55150299	      0.00000000	    -22.31547524	     -2.11404160	     -3.44726488
      4.53000000	      6.96454099	      3.78315650	      2.60108515	     -0.35368165	      0.91831400	      0.19025985	     11.52776393	     -6.64299106	     -6.87080695	    -64.43292277	     15.93593264	      5.91955302	      0.00000000	     -2.42153914	      9.56077091	      4.40204783	    -12.69182094	     17.03314684	    -10.81518633	      0.00000000	    -22.11868849	     -1.53970103	     -4.17644032
      4.54000000	      6.74693010	      3.47317550	      2.72409289	     -0.34025451	      0.91943078	      0.18974690	     13.21648080	     -6.37193805	     -7.02933261	    -63.40000501	     16.82171393	      5.94697545	      0.00000000	     -3.81535355	      9.29084543	      5.01197265	    -11.42006255	     16.68284265	    -11.91253871	      0.00000000	    -21.98665987	     -1.06312557	     -4.89949592
      4.55000000	      6.56313711	      3.22231014	      2.79835648	     -0.32684836	      0.92024757	      0.18947602	     14.77389561	     -6.10471154	     -7.09417867	    -62.08567528	     17.63034383	      6.10043166	      0.00000000	     -5.22103928	      9.05771327	      5.46603525	    -10.17762193	     16.30803611	    -12.97132207	      0.00000000	    -21.90958649	     -0.70328369	     -5.58454139
      4.56000000	      6.39561312	      3.06998991	      2.84496462	     -0.31343725	      0.92072804	      0.18940992	     16.21213904	     -5.90048521	     -7.08284917	    -60.51011925	     18.42426818	      6.46411280	      0.00000000	     -6.63722909	      8.90930323	      5.89973770	     -8.95628731	     15.88244076	    -14.00553170	      0.00000000	    -21.85828237	     -0.50017099	     -6.26866768
      4.57000000	      6.26103704	      3.00168655	      2.83676169	     -0.30000461	      0.92088897	      0.18959363	     17.50744643	     -5.71933592	     -6.94845391	    -58.66385472	     19.20569266	      6.98359427	      0.00000000	     -8.07617954	      8.83289401	      6.33835503	     -7.77100070	     15.40889492	    -15.12008342	      0.00000000	    -21.85202377	     -0.44510559	     -6.95477822
      4.58000000	      6.14610484	      2.98575598	      2.77558624	     -0.28650858	      0.92073801	      0.19000795	     18.65389546	     -5.52679639	     -6.70002422	    -56.52181565	     19.93140918	      7.59884730	      0.00000000	     -9.54520911	      8.79465254	      6.90168212	     -6.59315740	     14.79888526	    -16.37725108	      0.00000000	    -21.85906591	     -0.50169764	     -7.56307014
      4.59000000	      6.06136945	      2.99211775	      2.66585710	     -0.27295672	      0.92030214	      0.19064668	     19.62021934	     -5.27913908	     -6.32848800	    -54.05664268	     20.58281262	      8.21382688	      0.00000000	    -11.03382103	      8.75920960	      7.60095995	     -5.45667109	     14.08546216	    -17.82221087	      0.00000000	    -21.89639679	     -0.63262628	     -8.11837464
      4.60000000	      6.00724532	      3.00737092	      2.53199848	     -0.25932150	      0.91960600	      0.19143001	     20.37705204	     -4.97720727	     -5.85884454	    -51.23860396	     21.12282678	      8.75396366	      0.00000000	    -12.54399746	      8.70674534	      8.46861733	     -4.36551359	     13.24619733	    -19.42569063	      0.00000000	    -21.95289447	     -0.80023374	     -8.60526861
      4.61000000	      5.96104581	      3.00382448	      2.38681112	     -0.24560932	      0.91864719	      0.19232310	     20.92884119	     -4.60684725	     -5.30837713	    -48.04703298	     21.52237356	      9.16544444	      0.00000000	    -14.02193989	      8.60695492	      9.43439032	     -3.36439371	     12.36859422	    -21.09769803	      0.00000000	    -22.00938817	     -0.97325598	     -9.02022068
      4.62000000	      5.95222358	      2.98463615	      2.24535276	     -0.23180256	      0.91747987	      0.19326289	     21.22213620	     -4.19415509	     -4.69696973	    -44.46931360	     21.79838688	      9.47463764	      0.00000000	    -15.49882174	      8.46359819	     10.47525108	     -2.45583080	     11.40985477	    -22.85743760	      0.00000000	    -22.10426926	     -1.13337433	     -9.37783491
      4.63000000	      6.04758638	      2.92877078	      2.12791390	     -0.21785293	      0.91622369	      0.19420135	     21.15613280	     -3.74086129	     -4.06125171	    -40.48460654	     21.87945099	      9.61173711	      0.00000000	    -17.05463108	      8.24568931	     11.46436310	     -1.63185130	     10.67926255	    -24.27098422	      0.00000000	    -22.30604049	     -1.24560450	     -9.62234620
      4.64000000	      6.18264260	      2.82934666	      2.04438327	     -0.20373851	      0.91481350	      0.19512287	     20.79241311	     -3.24703605	     -3.37535419	    -36.09378117	     21.63286461	      9.38346481	      0.00000000	    -18.62006537	      7.95556560	     12.34690528	     -0.88507337	     10.03453338	    -25.46285114	      0.00000000	    -22.54572957	     -1.29499974	     -9.78475349
      4.65000000	      6.30878999	      2.75613225	      2.05522864	     -0.18946399	      0.91316240	      0.19593423	     20.20183914	     -2.82422751	     -2.65110513	    -31.37260032	     21.07423535	      8.74799617	      0.00000000	    -20.18568001	      7.64680166	     13.50745687	     -0.15406876	      9.12677713	    -27.04507170	      0.00000000	    -22.76771830	     -1.34334765	    -10.00171899
      4.66000000	      6.47607057	      2.71722142	      2.09442849	     -0.17497586	      0.91137022	      0.19673494	     19.35272349	     -2.47453475	     -1.83369488	    -26.37898224	     20.23883533	      7.76634145	      0.00000000	    -21.70996207	      7.36922670	     14.01525424	      0.39953886	      9.02508126	    -27.28104678	      0.00000000	    -23.03073487	     -1.41727475	    -10.09035169
      4.67000000	      6.67990719	      2.69357782	      2.26681335	     -0.16027097	      0.90933728	      0.19731677	     18.28874823	     -2.25304252	     -1.12471434	    -21.23834502	     19.10654426	      6.58381792	      0.00000000	    -23.42051548	      7.00694539	     15.50846651	      1.17915462	      7.71224958	    -29.27753456	      0.00000000	    -23.32255351	     -1.43768527	    -10.22780669
      4.68000000	      6.91602347	      2.77435832	      2.51261004	     -0.14534469	      0.90715502	      0.19783511	     17.06075237	     -2.20523706	     -0.33635883	    -16.06933923	     17.75714642	      5.02928803	      0.00000000	    -25.03369462	      6.74809206	     16.18942091	      1.68859829	      7.55954881	    -29.49738197	      0.00000000	    -23.64826549	     -1.54231179	    -10.36134501
      4.69000000	      7.17373793	      2.94760627	      2.85614564	     -0.13020205	      0.90474280	      0.19821672	     15.75803602	     -2.34595897	      0.40642669	    -11.09339647	     16.36695477	      3.34317709	      0.00000000	    -26.66903149	      6.52593511	     17.04044592	      2.16116877	      7.15252690	    -29.98683814	      0.00000000	    -23.99308310	     -1.69041218	    -10.57011880
      4.70000000	      7.43165226	      3.21380235	      3.26889297	     -0.11486397	      0.90212428	      0.19848815	     14.53416171	     -2.67255608	      0.85088737	     -6.61853036	     15.17472259	      1.93017608	      0.00000000	    -28.26393441	      6.35968691	     17.86863582	      2.53258982	      6.67720146	    -30.38991812	      0.00000000	    -24.33438685	     -1.89208735	    -10.79201545
